<svg xmlns="http://www.w3.org/2000/svg" viewBox="0 0 501.68 502.68"><defs><style>.cls-1{fill:#231815;}.cls-2,.cls-3{fill:none;stroke-miterlimit:10;}.cls-2{stroke:#231815;stroke-width:14.17px;}.cls-3{stroke:#898989;stroke-width:22.68px;}.cls-4{fill:#fff;}</style></defs><g id="レイヤー_2" data-name="レイヤー 2"><ellipse class="cls-1" cx="271.68" cy="370.58" rx="4.28" ry="5.35" transform="translate(-172.34 -167.65) rotate(-26.06)"/><path class="cls-1" d="M272.6,375.81a4.33,4.33,0,0,1-2-.44,6.11,6.11,0,0,1-2.82-2.88c-1.31-2.68-.63-5.73,1.53-6.78s5,.27,6.29,3a6.12,6.12,0,0,1,.54,4,3.94,3.94,0,0,1-2.07,2.79h0A3.53,3.53,0,0,1,272.6,375.81Zm-1.84-10.31a3.49,3.49,0,0,0-1.4.35c-2.08,1-2.73,4-1.46,6.57a6,6,0,0,0,2.75,2.82,3.78,3.78,0,0,0,3.34.07h0a3.78,3.78,0,0,0,2-2.68,5.94,5.94,0,0,0-.53-3.89A5.34,5.34,0,0,0,270.76,365.5Z" transform="translate(-37.16 -324.66)"/><path class="cls-1" d="M292.76,375.24c-.43-1.32-1.07-4.6-2.32-6a7.4,7.4,0,0,0-3.55-2.14,10.73,10.73,0,0,0-2.19-.18,10.49,10.49,0,0,0-2.18.33,7.38,7.38,0,0,0-3.39,2.38c-1.15,1.44-1.57,4.76-1.9,6.1-8,3.45-7.93,11-2.26,13.36,3.18,1.74,10.25.31,11,.23s6.88,1,9.93-.95C301.41,385.66,301,378.13,292.76,375.24Z" transform="translate(-37.16 -324.66)"/><path class="cls-1" d="M290.94,389.69a33,33,0,0,1-4.37-.2l-.58-.06-.54.08c-1.9.31-7.71,1.22-10.52-.31a6.2,6.2,0,0,1-4.08-5.7c0-3.17,2.35-6.07,6.31-7.78.07-.29.14-.66.23-1.09.32-1.63.77-3.87,1.68-5a7.46,7.46,0,0,1,3.43-2.4,10.23,10.23,0,0,1,2.2-.34,10,10,0,0,1,2.2.18,7.5,7.5,0,0,1,3.59,2.17c1,1.08,1.59,3.28,2,4.89.12.42.22.78.31,1.06,4.07,1.44,6.62,4.18,6.82,7.33a6.19,6.19,0,0,1-3.68,6A10.33,10.33,0,0,1,290.94,389.69Zm-4.95-.41.59.06c1.83.18,6.68.68,9.3-1a6,6,0,0,0,3.61-5.83c-.2-3.1-2.72-5.8-6.76-7.21h0l0,0c-.09-.29-.19-.66-.31-1.1-.41-1.51-1-3.78-2-4.83a7.42,7.42,0,0,0-3.5-2.12,9.36,9.36,0,0,0-4.34.15,7.31,7.31,0,0,0-3.35,2.36c-.89,1.11-1.35,3.42-1.65,4.94-.09.45-.17.84-.24,1.13v0h0c-3.93,1.69-6.27,4.55-6.26,7.66a6,6,0,0,0,4,5.56c2.78,1.52,8.54.6,10.44.31Z" transform="translate(-37.16 -324.66)"/><ellipse class="cls-1" cx="290.16" cy="359.99" rx="5.77" ry="4.28" transform="translate(-141.94 275.75) rotate(-82.46)"/><path class="cls-1" d="M289.94,365.81a2.57,2.57,0,0,1-.55,0c-2.38-.31-4-3.17-3.54-6.37s2.7-5.54,5.08-5.22a3.86,3.86,0,0,1,2.83,2.11,7.38,7.38,0,0,1-1.08,8.18A4,4,0,0,1,289.94,365.81Zm.45-11.5c-2.1.07-4,2.25-4.39,5.12-.42,3.12,1.12,5.9,3.41,6.2a3.73,3.73,0,0,0,3.16-1.25,6.92,6.92,0,0,0,1.76-3.84,6.81,6.81,0,0,0-.7-4.17,3.71,3.71,0,0,0-2.72-2h0A3.08,3.08,0,0,0,290.39,354.31Z" transform="translate(-37.16 -324.66)"/><ellipse class="cls-1" cx="278.55" cy="360.38" rx="4.28" ry="5.77" transform="translate(-83.65 -283.36) rotate(-7.83)"/><path class="cls-1" d="M279,366.21c-2.25.07-4.35-2.19-4.77-5.23-.44-3.2,1.14-6.06,3.51-6.39h0c2.38-.33,4.67,2,5.11,5.2s-1.14,6.06-3.51,6.39Zm-1.24-11.47c-2.29.31-3.81,3.1-3.38,6.22s2.64,5.38,4.94,5.07,3.81-3.11,3.38-6.22-2.64-5.39-4.94-5.07Z" transform="translate(-37.16 -324.66)"/><ellipse class="cls-1" cx="297.76" cy="369.69" rx="5.35" ry="4.28" transform="translate(-212.27 86.58) rotate(-56.17)"/><path class="cls-1" d="M297,374.8a3.68,3.68,0,0,1-2.21-.61h0a4,4,0,0,1-1.68-3,6.44,6.44,0,0,1,4.26-6.36,3.77,3.77,0,0,1,5.12,3.43,6.38,6.38,0,0,1-4.26,6.36A4.49,4.49,0,0,1,297,374.8Zm1.62-10.08a4.68,4.68,0,0,0-1.2.22,6.24,6.24,0,0,0-4.16,6.2,3.83,3.83,0,0,0,1.61,2.93h0a3.82,3.82,0,0,0,3.32.37,6.27,6.27,0,0,0,4.15-6.2,3.76,3.76,0,0,0-1.6-2.93A3.56,3.56,0,0,0,298.58,364.72Z" transform="translate(-37.16 -324.66)"/><ellipse class="cls-1" cx="171.99" cy="405.05" rx="4.28" ry="5.35" transform="translate(-297.24 -3.06) rotate(-56.06)"/><path class="cls-1" d="M175.4,409.13a4.44,4.44,0,0,1-2,.62,6.1,6.1,0,0,1-3.88-1.09c-2.48-1.67-3.41-4.64-2.07-6.63s4.45-2.25,6.93-.58a6,6,0,0,1,2.46,3.18,3.93,3.93,0,0,1-.39,3.45h0A3.64,3.64,0,0,1,175.4,409.13Zm-6.75-8a3.5,3.5,0,0,0-1,1c-1.3,1.92-.39,4.81,2,6.43a6,6,0,0,0,3.79,1.06,3.82,3.82,0,0,0,2.93-1.6h0a3.82,3.82,0,0,0,.38-3.32,6,6,0,0,0-2.41-3.11A5.35,5.35,0,0,0,168.65,401.11Z" transform="translate(-37.16 -324.66)"/><path class="cls-1" d="M192.57,398.55c-1-.92-3.22-3.44-5-4a7.36,7.36,0,0,0-4.15-.08,10.87,10.87,0,0,0-2,.94,11.36,11.36,0,0,0-1.72,1.37,7.36,7.36,0,0,0-1.74,3.76c-.28,1.83,1,4.91,1.4,6.24-5.24,7-1.37,13.48,4.72,12.7,3.63-.09,9-4.87,9.66-5.32s6.46-2.57,8.13-5.78C205.28,403.25,201.16,396.93,192.57,398.55Z" transform="translate(-37.16 -324.66)"/><path class="cls-1" d="M198.23,412a31.15,31.15,0,0,1-3.89,2l-.53.25-.43.34c-1.5,1.21-6.06,4.91-9.27,5a6.19,6.19,0,0,1-6.38-2.89c-1.59-2.74-1-6.43,1.57-9.9-.08-.28-.2-.64-.34-1.05-.53-1.58-1.27-3.74-1.05-5.18a7.53,7.53,0,0,1,1.77-3.8,10,10,0,0,1,1.74-1.39,9.86,9.86,0,0,1,2-.94,7.5,7.5,0,0,1,4.19.08c1.39.44,3,2,4.19,3.22l.79.77c4.25-.79,7.83.3,9.58,2.94a6.21,6.21,0,0,1-.2,7A10.44,10.44,0,0,1,198.23,412Zm-4.5,2.12c.1-.06.29-.14.55-.26,1.67-.75,6.12-2.74,7.56-5.5a6.07,6.07,0,0,0,.21-6.85c-1.73-2.59-5.26-3.66-9.46-2.86h0l0,0c-.22-.2-.5-.48-.83-.8-1.1-1.1-2.77-2.76-4.13-3.19a7.33,7.33,0,0,0-4.09-.08,9.94,9.94,0,0,0-2,.93,9.84,9.84,0,0,0-1.72,1.37,7.38,7.38,0,0,0-1.72,3.71c-.21,1.41.54,3.64,1,5.11.15.43.28.8.36,1.1v0l0,0c-2.56,3.43-3.16,7.07-1.59,9.76a6,6,0,0,0,6.24,2.82c3.16-.07,7.7-3.75,9.19-4.95Z" transform="translate(-37.16 -324.66)"/><ellipse class="cls-1" cx="182.7" cy="386.64" rx="4.28" ry="5.77" transform="translate(-171.08 -225.47) rotate(-22.47)"/><path class="cls-1" d="M185.42,391.79a3.23,3.23,0,0,1-.49.25c-2.22.92-5-.76-6.26-3.74s-.43-6.15,1.79-7.06a3.86,3.86,0,0,1,3.51.41,7.33,7.33,0,0,1,3.15,7.62A4,4,0,0,1,185.42,391.79Zm-5.36-10.18c-1.79,1.11-2.36,3.95-1.25,6.63,1.2,2.91,3.92,4.55,6.06,3.66a3.7,3.7,0,0,0,2.11-2.66,6.89,6.89,0,0,0-.4-4.21,6.77,6.77,0,0,0-2.69-3.25,3.72,3.72,0,0,0-3.37-.41h0A3.33,3.33,0,0,0,180.06,381.61Z" transform="translate(-37.16 -324.66)"/><ellipse class="cls-1" cx="172.84" cy="392.79" rx="4.28" ry="5.77" transform="translate(-241.77 -136.06) rotate(-37.84)"/><path class="cls-1" d="M176.15,397.6c-1.91,1.19-4.86.28-6.75-2.14s-2-5.82-.15-7.29h0c1.9-1.47,5.05-.6,7,1.95s2,5.82.15,7.29Zm-6.8-9.31c-1.83,1.42-1.75,4.59.17,7.07s5,3.35,6.81,1.93,1.76-4.6-.17-7.08-5-3.34-6.81-1.92Z" transform="translate(-37.16 -324.66)"/><ellipse class="cls-1" cx="194.13" cy="391.24" rx="5.35" ry="4.28" transform="translate(-246.33 234.24) rotate(-86.18)"/><path class="cls-1" d="M196,396.07a3.68,3.68,0,0,1-2.22.58h0a4,4,0,0,1-3-1.8,6.08,6.08,0,0,1-1-3.9,6.15,6.15,0,0,1,1.52-3.73,3.77,3.77,0,0,1,6.15.41,6.4,6.4,0,0,1-.51,7.63A4.26,4.26,0,0,1,196,396.07Zm-3.64-9.53a4.19,4.19,0,0,0-.93.78,5.94,5.94,0,0,0-1.48,3.64,6.06,6.06,0,0,0,1,3.81,3.83,3.83,0,0,0,2.86,1.73h0a3.8,3.8,0,0,0,3.06-1.34,6.27,6.27,0,0,0,.5-7.45,3.83,3.83,0,0,0-2.86-1.73A3.56,3.56,0,0,0,192.35,386.54Z" transform="translate(-37.16 -324.66)"/><ellipse class="cls-1" cx="103.07" cy="484.42" rx="4.28" ry="5.35" transform="translate(-424.47 229.22) rotate(-86.05)"/><path class="cls-1" d="M108.06,486.25a4.32,4.32,0,0,1-1.39,1.51,6.09,6.09,0,0,1-3.9,1c-3-.21-5.28-2.32-5.11-4.72s2.72-4.17,5.71-4a6.18,6.18,0,0,1,3.73,1.53,4,4,0,0,1,1.37,3.19h0A3.51,3.51,0,0,1,108.06,486.25Zm-9.85-3.57a3.29,3.29,0,0,0-.4,1.38c-.16,2.31,2.07,4.36,5,4.56a6,6,0,0,0,3.81-1,3.78,3.78,0,0,0,1.73-2.85h0a3.78,3.78,0,0,0-1.33-3.07,6,6,0,0,0-3.63-1.49A5.37,5.37,0,0,0,98.21,482.68Z" transform="translate(-37.16 -324.66)"/><path class="cls-1" d="M117.64,468.5c-1.35-.29-4.52-1.37-6.32-1a7.45,7.45,0,0,0-3.63,2,10.06,10.06,0,0,0-1.25,1.81,10.63,10.63,0,0,0-.8,2.05,7.46,7.46,0,0,0,.36,4.13c.67,1.72,3.34,3.74,4.34,4.7-1,8.68,5.55,12.36,10.44,8.63,3.09-1.88,5.39-8.72,5.71-9.43s4.31-5.45,4.14-9.07C131,466.22,124.27,462.8,117.64,468.5Z" transform="translate(-37.16 -324.66)"/><path class="cls-1" d="M129.25,477.3a31.91,31.91,0,0,1-2.36,3.68c-.17.23-.29.39-.34.48l-.2.51c-.69,1.8-2.8,7.28-5.53,8.95a6.2,6.2,0,0,1-7,.68c-2.75-1.57-4.08-5.06-3.58-9.35-.22-.21-.5-.46-.83-.74-1.25-1.1-3-2.6-3.5-4a7.52,7.52,0,0,1-.37-4.17,10.82,10.82,0,0,1,.81-2.07,10.31,10.31,0,0,1,1.26-1.82,7.48,7.48,0,0,1,3.67-2c1.43-.32,3.64.26,5.25.69.42.11.78.21,1.07.27,3.28-2.81,6.93-3.65,9.76-2.25a6.2,6.2,0,0,1,3.33,6.18A10.32,10.32,0,0,1,129.25,477.3Zm-2.83,4.09c.06-.1.18-.27.34-.49,1.08-1.49,3.94-5.44,3.8-8.55a6.06,6.06,0,0,0-3.24-6c-2.79-1.38-6.39-.54-9.63,2.25l0,0h0l-1.11-.28c-1.51-.4-3.78-1-5.17-.69a7.31,7.31,0,0,0-3.59,2,9.54,9.54,0,0,0-1.24,1.79,9.71,9.71,0,0,0-.8,2,7.38,7.38,0,0,0,.36,4.08c.52,1.33,2.29,2.88,3.46,3.9.34.3.64.56.86.77l0,0v0c-.51,4.24.8,7.7,3.5,9.24a6.05,6.05,0,0,0,6.82-.68c2.7-1.64,4.79-7.09,5.48-8.88Z" transform="translate(-37.16 -324.66)"/><ellipse class="cls-1" cx="103.13" cy="463.12" rx="4.28" ry="5.77" transform="translate(-364.15 -61.83) rotate(-52.48)"/><path class="cls-1" d="M108.07,466.23a4.53,4.53,0,0,1-.3.46c-1.46,1.9-4.73,1.85-7.29-.12s-3.45-5.11-2-7a3.9,3.9,0,0,1,3.25-1.4,7,7,0,0,1,4,1.51,6.89,6.89,0,0,1,2.5,3.52A4.08,4.08,0,0,1,108.07,466.23Zm-9.74-6.14c-1,1.85-.06,4.6,2.24,6.37,2.49,1.91,5.67,2,7.08.14a3.75,3.75,0,0,0,.49-3.37,7.22,7.22,0,0,0-6.41-4.92,3.74,3.74,0,0,0-3.12,1.34h0A4.08,4.08,0,0,0,98.33,460.09Z" transform="translate(-37.16 -324.66)"/><ellipse class="cls-1" cx="97.67" cy="473.38" rx="4.28" ry="5.77" transform="translate(-414.73 60.57) rotate(-67.83)"/><path class="cls-1" d="M102.94,475.89c-1.06,2-4.07,2.68-6.91,1.52s-4.68-4-3.78-6.24h0c.91-2.22,4.08-3,7.06-1.82s4.68,4,3.78,6.23A3,3,0,0,1,102.94,475.89Zm-10.55-4.66c-.87,2.14.78,4.85,3.69,6s6,.4,6.87-1.74-.79-4.86-3.69-6-6-.41-6.87,1.74Z" transform="translate(-37.16 -324.66)"/><ellipse class="cls-1" cx="115.33" cy="461.39" rx="4.28" ry="5.35" transform="matrix(0.9, -0.44, 0.44, 0.9, -229, -226.35)"/><path class="cls-1" d="M119.36,464.65a3.78,3.78,0,0,1-1.63,1.61h0a4,4,0,0,1-3.47-.07,6.41,6.41,0,0,1-3.38-6.87,3.77,3.77,0,0,1,5.53-2.72,6.39,6.39,0,0,1,3.38,6.86A4.94,4.94,0,0,1,119.36,464.65Zm-7.92-6.44a4.4,4.4,0,0,0-.41,1.14,5.93,5.93,0,0,0,.53,3.89,6,6,0,0,0,2.76,2.81,3.81,3.81,0,0,0,3.34.07h0a3.79,3.79,0,0,0,2-2.69,5.89,5.89,0,0,0-.54-3.89,6,6,0,0,0-2.75-2.81,3.81,3.81,0,0,0-3.34-.07A3.56,3.56,0,0,0,111.44,458.21Z" transform="translate(-37.16 -324.66)"/><ellipse class="cls-1" cx="82.42" cy="587.27" rx="5.35" ry="4.28" transform="translate(-286.58 -228.88) rotate(-26.04)"/><path class="cls-1" d="M87.65,586.36a4.45,4.45,0,0,1-.44,2,6.07,6.07,0,0,1-2.88,2.82c-2.69,1.31-5.73.63-6.78-1.53s.27-5,3-6.29a6.17,6.17,0,0,1,4-.54,4,4,0,0,1,2.79,2.07h0A3.74,3.74,0,0,1,87.65,586.36Zm-10.31,1.83a3.32,3.32,0,0,0,.34,1.4c1,2.08,4,2.73,6.58,1.46a6,6,0,0,0,2.81-2.75,3.81,3.81,0,0,0,.08-3.34h0a3.78,3.78,0,0,0-2.68-2,6,6,0,0,0-3.9.53A5.34,5.34,0,0,0,77.34,588.19Z" transform="translate(-37.16 -324.66)"/><path class="cls-1" d="M87.08,566.2c-1.32.42-4.6,1.07-6,2.32A7.4,7.4,0,0,0,79,572.06a10.84,10.84,0,0,0-.18,2.2,11.4,11.4,0,0,0,.33,2.17,7.43,7.43,0,0,0,2.39,3.39c1.44,1.16,4.76,1.57,6.1,1.91,3.44,8,11,7.92,13.36,2.26,1.74-3.19.3-10.26.23-11s1-6.87-1-9.93C97.5,557.54,90,558,87.08,566.2Z" transform="translate(-37.16 -324.66)"/><path class="cls-1" d="M101.53,568a31,31,0,0,1-.21,4.37c0,.28,0,.48,0,.58s0,.28.08.54c.3,1.91,1.22,7.71-.31,10.52a6.21,6.21,0,0,1-5.71,4.08c-3.16,0-6.06-2.34-7.78-6.31-.28-.07-.65-.14-1.08-.23-1.63-.32-3.87-.77-5-1.68a7.56,7.56,0,0,1-2.41-3.43,9.73,9.73,0,0,1-.33-2.2,10.07,10.07,0,0,1,.18-2.2,7.5,7.5,0,0,1,2.17-3.59c1.07-1,3.28-1.59,4.88-2,.42-.11.79-.21,1.07-.3,1.43-4.08,4.17-6.63,7.33-6.83a6.2,6.2,0,0,1,6,3.69A10.26,10.26,0,0,1,101.53,568Zm-.41,5c0-.12,0-.32,0-.6.19-1.83.69-6.68-1-9.3a6.05,6.05,0,0,0-5.83-3.61c-3.1.2-5.8,2.73-7.21,6.76v0h0c-.29.09-.67.2-1.11.31-1.5.41-3.77,1-4.82,2a7.26,7.26,0,0,0-2.12,3.5,9.41,9.41,0,0,0,.15,4.35,7.31,7.31,0,0,0,2.35,3.34c1.12.89,3.42,1.35,5,1.66.45.08.83.16,1.13.23h0l0,0c1.68,3.93,4.54,6.26,7.65,6.25a6,6,0,0,0,5.57-4c1.51-2.78.6-8.54.3-10.44C101.16,573.26,101.13,573.06,101.12,573Z" transform="translate(-37.16 -324.66)"/><ellipse class="cls-1" cx="71.82" cy="568.79" rx="4.28" ry="5.77" transform="translate(-538.64 240.78) rotate(-82.47)"/><path class="cls-1" d="M77.65,569a5.07,5.07,0,0,1,0,.55c-.32,2.38-3.17,4-6.37,3.55S65.71,570.41,66,568a3.91,3.91,0,0,1,2.11-2.84,7,7,0,0,1,4.26-.71,6.91,6.91,0,0,1,3.93,1.8A4.08,4.08,0,0,1,77.65,569Zm-11.5-.45c.07,2.11,2.24,4,5.12,4.4,3.11.41,5.9-1.12,6.2-3.42a3.68,3.68,0,0,0-1.26-3.15,7.18,7.18,0,0,0-8-1.06,3.71,3.71,0,0,0-2,2.72h0A2.9,2.9,0,0,0,66.15,568.56Z" transform="translate(-37.16 -324.66)"/><ellipse class="cls-1" cx="72.22" cy="580.4" rx="5.77" ry="4.28" transform="translate(-115.5 -309.43) rotate(-7.82)"/><path class="cls-1" d="M78,579.94c.08,2.25-2.18,4.35-5.23,4.77s-6.06-1.13-6.39-3.51h0c-.32-2.38,2-4.67,5.21-5.11s6.06,1.14,6.38,3.52A1.84,1.84,0,0,1,78,579.94Zm-11.47,1.24c.32,2.29,3.11,3.81,6.22,3.38s5.39-2.64,5.07-4.93-3.1-3.82-6.21-3.39-5.39,2.65-5.08,4.94Z" transform="translate(-37.16 -324.66)"/><ellipse class="cls-1" cx="81.52" cy="561.19" rx="4.28" ry="5.35" transform="translate(-467.33 -7.91) rotate(-56.2)"/><path class="cls-1" d="M86.64,562a3.72,3.72,0,0,1-.61,2.21h0a3.94,3.94,0,0,1-3,1.67,6.38,6.38,0,0,1-6.36-4.26,3.77,3.77,0,0,1,3.43-5.12,6.44,6.44,0,0,1,6.36,4.26A5.06,5.06,0,0,1,86.64,562Zm-10.08-1.62a4.33,4.33,0,0,0,.21,1.2,6,6,0,0,0,2.42,3.1A5.9,5.9,0,0,0,83,565.73a3.8,3.8,0,0,0,2.93-1.61h0a3.78,3.78,0,0,0,.37-3.32,6.25,6.25,0,0,0-6.2-4.15,3.83,3.83,0,0,0-2.93,1.61A3.54,3.54,0,0,0,76.56,560.38Z" transform="translate(-37.16 -324.66)"/><ellipse class="cls-1" cx="115.94" cy="687.49" rx="5.35" ry="4.28" transform="translate(-556.18 74.88) rotate(-56.03)"/><path class="cls-1" d="M120,684.08a4.4,4.4,0,0,1,.62,2,6.16,6.16,0,0,1-1.09,3.88c-1.67,2.48-4.65,3.4-6.64,2.06s-2.25-4.44-.58-6.92a6.13,6.13,0,0,1,3.19-2.47,4,4,0,0,1,3.45.4h0A3.76,3.76,0,0,1,120,684.08Zm-8,6.74a3.54,3.54,0,0,0,1,1c1.92,1.29,4.8.38,6.43-2a6,6,0,0,0,1.06-3.78,3.82,3.82,0,0,0-1.6-2.93h0a3.79,3.79,0,0,0-3.32-.38,5.92,5.92,0,0,0-3.11,2.4A5.35,5.35,0,0,0,112,690.82Z" transform="translate(-37.16 -324.66)"/><path class="cls-1" d="M109.44,666.91c-.93,1-3.45,3.22-4,5a7.42,7.42,0,0,0-.09,4.14,9.34,9.34,0,0,0,2.32,3.72,7.49,7.49,0,0,0,3.76,1.74c1.82.28,4.91-1,6.24-1.4,7,5.23,13.47,1.37,12.7-4.72-.09-3.63-4.87-9-5.32-9.67s-2.57-6.45-5.78-8.12C114.13,654.2,107.81,658.32,109.44,666.91Z" transform="translate(-37.16 -324.66)"/><path class="cls-1" d="M122.86,661.25a31.49,31.49,0,0,1,2,3.89l.24.53.34.42c1.22,1.5,4.91,6.07,5,9.27a6.2,6.2,0,0,1-2.9,6.39c-2.73,1.59-6.42,1-9.89-1.58-.28.08-.64.21-1.05.35-1.58.53-3.74,1.27-5.18,1.05a7.65,7.65,0,0,1-3.81-1.77,10.43,10.43,0,0,1-1.38-1.74,10.2,10.2,0,0,1-1-2,7.51,7.51,0,0,1,.09-4.19c.43-1.4,2-3,3.22-4.19.3-.31.57-.58.77-.8-.79-4.24.3-7.82,2.93-9.57a6.2,6.2,0,0,1,7,.2A10.25,10.25,0,0,1,122.86,661.25Zm2.13,4.5c-.06-.11-.14-.29-.26-.55-.75-1.67-2.74-6.12-5.5-7.56a6.05,6.05,0,0,0-6.85-.21c-2.59,1.73-3.66,5.26-2.87,9.46v0l0,0-.81.82c-1.09,1.11-2.75,2.78-3.18,4.14a7.43,7.43,0,0,0-.09,4.09,10.22,10.22,0,0,0,.94,2,9.44,9.44,0,0,0,1.37,1.71,7.26,7.26,0,0,0,3.71,1.73c1.41.21,3.64-.55,5.11-1,.43-.14.8-.27,1.09-.35h0l0,0c3.42,2.56,7.07,3.15,9.76,1.59a6.06,6.06,0,0,0,2.82-6.24c-.08-3.16-3.75-7.7-4.95-9.19C125.17,666,125,665.83,125,665.75Z" transform="translate(-37.16 -324.66)"/><ellipse class="cls-1" cx="97.52" cy="676.78" rx="5.77" ry="4.28" transform="translate(-288.3 -236.08) rotate(-22.46)"/><path class="cls-1" d="M102.68,674.06a2.82,2.82,0,0,1,.25.49c.92,2.21-.76,5-3.74,6.25s-6.15.43-7.07-1.78a3.86,3.86,0,0,1,.41-3.51,7.36,7.36,0,0,1,7.63-3.16A4.06,4.06,0,0,1,102.68,674.06ZM92.5,679.42c1.11,1.78,4,2.35,6.63,1.24,2.9-1.2,4.55-3.92,3.66-6.06a3.71,3.71,0,0,0-2.67-2.1,7.2,7.2,0,0,0-7.46,3.09,3.72,3.72,0,0,0-.4,3.37h0A4,4,0,0,0,92.5,679.42Z" transform="translate(-37.16 -324.66)"/><ellipse class="cls-1" cx="103.67" cy="686.64" rx="5.77" ry="4.28" transform="translate(-436.38 -116.89) rotate(-37.82)"/><path class="cls-1" d="M108.49,683.32c1.19,1.92.28,4.87-2.15,6.75s-5.81,2-7.29.15h0c-1.47-1.89-.59-5,2-7s5.81-2.05,7.28-.15Zm-9.32,6.81c1.42,1.83,4.6,1.75,7.08-.18s3.34-5,1.92-6.81-4.59-1.75-7.07.18-3.35,5-1.93,6.81Z" transform="translate(-37.16 -324.66)"/><ellipse class="cls-1" cx="102.13" cy="665.35" rx="4.28" ry="5.35" transform="translate(-605.7 398.36) rotate(-86.19)"/><path class="cls-1" d="M107,663.49a3.68,3.68,0,0,1,.58,2.22h0a4,4,0,0,1-1.8,3,6.42,6.42,0,0,1-7.64-.51,3.78,3.78,0,0,1,.41-6.15,6.41,6.41,0,0,1,7.64.51A4.54,4.54,0,0,1,107,663.49Zm-9.54,3.63a4.59,4.59,0,0,0,.78.94,6.06,6.06,0,0,0,3.65,1.48,6,6,0,0,0,3.8-1,3.75,3.75,0,0,0,1.73-2.85h0a3.78,3.78,0,0,0-1.33-3.06,6.27,6.27,0,0,0-7.45-.5A3.8,3.8,0,0,0,96.87,665,3.51,3.51,0,0,0,97.42,667.12Z" transform="translate(-37.16 -324.66)"/><ellipse class="cls-1" cx="194.29" cy="758.23" rx="5.35" ry="4.28" transform="translate(-612.7 575.09) rotate(-86.04)"/><path class="cls-1" d="M196.11,753.24a4.42,4.42,0,0,1,1.52,1.38,6.12,6.12,0,0,1,1,3.91c-.2,3-2.32,5.27-4.71,5.11s-4.18-2.73-4-5.71a6.1,6.1,0,0,1,1.53-3.73,3.94,3.94,0,0,1,3.18-1.38h0A3.68,3.68,0,0,1,196.11,753.24Zm-3.56,9.85a3.61,3.61,0,0,0,1.38.4c2.31.16,4.35-2.07,4.55-5a6,6,0,0,0-1-3.81,3.84,3.84,0,0,0-2.86-1.74h0a3.84,3.84,0,0,0-3.06,1.33,6,6,0,0,0-1.49,3.64A5.34,5.34,0,0,0,192.55,763.09Z" transform="translate(-37.16 -324.66)"/><path class="cls-1" d="M178.37,743.66c-.29,1.35-1.38,4.51-1,6.32a7.4,7.4,0,0,0,2,3.62,11.65,11.65,0,0,0,1.81,1.26,10.89,10.89,0,0,0,2.06.8,7.34,7.34,0,0,0,4.12-.37c1.72-.67,3.74-3.33,4.7-4.33,8.68,1,12.36-5.55,8.64-10.44-1.89-3.09-8.73-5.39-9.44-5.71s-5.45-4.31-9.07-4.15C176.08,730.3,172.67,737,178.37,743.66Z" transform="translate(-37.16 -324.66)"/><path class="cls-1" d="M187.17,732.05a32.83,32.83,0,0,1,3.68,2.36c.22.17.39.28.47.34l.51.2c1.8.69,7.29,2.8,9,5.53a6.22,6.22,0,0,1,.68,7c-1.57,2.74-5.07,4.08-9.36,3.58-.2.21-.45.5-.74.82-1.09,1.26-2.6,3-4,3.5a7.47,7.47,0,0,1-4.18.37,9.4,9.4,0,0,1-2.06-.81,9.64,9.64,0,0,1-1.82-1.26,7.53,7.53,0,0,1-2-3.67c-.32-1.43.27-3.63.7-5.24.11-.42.2-.78.27-1.07-2.81-3.28-3.65-6.93-2.25-9.76a6.2,6.2,0,0,1,6.18-3.33A10.32,10.32,0,0,1,187.17,732.05Zm4.08,2.83c-.1-.06-.26-.18-.49-.35-1.49-1.07-5.44-3.93-8.54-3.79a6.06,6.06,0,0,0-6.05,3.24c-1.37,2.79-.53,6.39,2.26,9.63l0,0v0c-.06.3-.16.68-.28,1.12-.4,1.5-1,3.78-.69,5.17a7.28,7.28,0,0,0,2,3.58,9.84,9.84,0,0,0,1.8,1.25,9.71,9.71,0,0,0,2,.8,7.31,7.31,0,0,0,4.08-.37c1.32-.52,2.87-2.29,3.9-3.46.3-.34.56-.63.77-.85l0,0h0c4.25.5,7.7-.81,9.25-3.51a6,6,0,0,0-.68-6.81c-1.65-2.7-7.09-4.8-8.88-5.48Z" transform="translate(-37.16 -324.66)"/><ellipse class="cls-1" cx="172.99" cy="758.17" rx="5.77" ry="4.28" transform="translate(-570.71 108.64) rotate(-52.45)"/><path class="cls-1" d="M176.09,753.23a4.53,4.53,0,0,1,.46.3c1.9,1.46,1.85,4.73-.11,7.29s-5.11,3.45-7,2a3.85,3.85,0,0,1-1.39-3.24,7.35,7.35,0,0,1,5-6.55A4,4,0,0,1,176.09,753.23ZM170,763c1.86,1,4.6.07,6.37-2.24,1.91-2.49,2-5.66.14-7.07a3.71,3.71,0,0,0-3.36-.49,7.22,7.22,0,0,0-4.92,6.4,3.69,3.69,0,0,0,1.34,3.12h0A2.87,2.87,0,0,0,170,763Z" transform="translate(-37.16 -324.66)"/><ellipse class="cls-1" cx="183.24" cy="763.63" rx="5.77" ry="4.28" transform="translate(-630.21 320.34) rotate(-67.82)"/><path class="cls-1" d="M185.75,758.35c2,1.06,2.68,4.07,1.52,6.92s-4,4.68-6.24,3.77h0c-2.22-.91-3-4.07-1.82-7.06s4-4.68,6.24-3.77Zm-4.66,10.55c2.15.88,4.86-.78,6-3.69s.41-6-1.74-6.86-4.85.78-6,3.69-.4,6,1.74,6.86Z" transform="translate(-37.16 -324.66)"/><ellipse class="cls-1" cx="171.25" cy="745.96" rx="5.35" ry="4.28" transform="translate(-348.66 -172.62) rotate(-26.18)"/><path class="cls-1" d="M174.51,741.94a3.68,3.68,0,0,1,1.61,1.63h0a4,4,0,0,1-.07,3.47,6.4,6.4,0,0,1-6.87,3.38,3.79,3.79,0,0,1-2.72-5.54,6.18,6.18,0,0,1,2.87-2.82,6.08,6.08,0,0,1,4-.55A4.48,4.48,0,0,1,174.51,741.94Zm-6.44,7.91a4.19,4.19,0,0,0,1.14.42,6.26,6.26,0,0,0,6.7-3.29,3.78,3.78,0,0,0,.07-3.34h0a3.78,3.78,0,0,0-2.68-2,6,6,0,0,0-3.9.54,6,6,0,0,0-2.8,2.76,3.78,3.78,0,0,0-.07,3.34A3.47,3.47,0,0,0,168.07,749.85Z" transform="translate(-37.16 -324.66)"/><ellipse class="cls-1" cx="299.36" cy="780.58" rx="4.28" ry="5.35" transform="translate(-349.63 -113.81) rotate(-26.06)"/><path class="cls-1" d="M298.44,775.35a4.24,4.24,0,0,1,2,.44,6.16,6.16,0,0,1,2.82,2.88c1.31,2.68.62,5.73-1.53,6.78s-5-.27-6.29-3a6.08,6.08,0,0,1-.54-4,3.91,3.91,0,0,1,2.07-2.78h0A3.49,3.49,0,0,1,298.44,775.35Zm1.83,10.31a3.41,3.41,0,0,0,1.4-.35c2.08-1,2.74-4,1.46-6.58a6,6,0,0,0-2.75-2.81,3.81,3.81,0,0,0-3.34-.08h0a3.85,3.85,0,0,0-2,2.69,5.94,5.94,0,0,0,.53,3.89A5.35,5.35,0,0,0,300.27,785.66Z" transform="translate(-37.16 -324.66)"/><path class="cls-1" d="M278.28,775.92c.42,1.32,1.07,4.6,2.32,6a7.37,7.37,0,0,0,3.54,2.14,10.84,10.84,0,0,0,2.2.18,10.35,10.35,0,0,0,2.17-.33,7.36,7.36,0,0,0,3.4-2.38c1.15-1.44,1.57-4.76,1.9-6.1,8-3.45,7.93-11,2.26-13.36-3.18-1.74-10.26-.31-11-.23s-6.87-1-9.93,1C269.62,765.5,270,773,278.28,775.92Z" transform="translate(-37.16 -324.66)"/><path class="cls-1" d="M280.1,761.47a33.14,33.14,0,0,1,4.37.2l.57.06.54-.08c1.91-.31,7.71-1.22,10.53.31a6.18,6.18,0,0,1,4.07,5.7c0,3.16-2.34,6.07-6.31,7.78-.07.29-.14.66-.22,1.08-.33,1.64-.77,3.88-1.69,5a7.46,7.46,0,0,1-3.43,2.4,10.27,10.27,0,0,1-2.19.34,9.85,9.85,0,0,1-2.21-.19,7.4,7.4,0,0,1-3.59-2.16c-1-1.08-1.58-3.28-2-4.89-.11-.42-.21-.78-.3-1.06-4.07-1.44-6.63-4.18-6.83-7.33a6.2,6.2,0,0,1,3.69-6A10.3,10.3,0,0,1,280.1,761.47Zm4.95.41-.6-.06c-1.83-.18-6.68-.68-9.3,1a6.06,6.06,0,0,0-3.61,5.83c.2,3.1,2.73,5.8,6.76,7.21h0v0c.09.29.2.66.32,1.1.4,1.51,1,3.78,2,4.83a7.52,7.52,0,0,0,3.5,2.12,9.41,9.41,0,0,0,4.35-.15,7.41,7.41,0,0,0,3.35-2.36c.89-1.11,1.34-3.42,1.65-4.94.09-.45.16-.84.24-1.13v0h0c3.93-1.69,6.27-4.55,6.25-7.66a6,6,0,0,0-4-5.56c-2.77-1.52-8.54-.61-10.43-.31Z" transform="translate(-37.16 -324.66)"/><ellipse class="cls-1" cx="280.87" cy="791.17" rx="5.77" ry="4.28" transform="translate(-577.47 641.16) rotate(-82.46)"/><path class="cls-1" d="M281.09,785.35a2.51,2.51,0,0,1,.55,0c2.38.31,4,3.17,3.55,6.36s-2.7,5.55-5.08,5.23a3.84,3.84,0,0,1-2.83-2.11,7,7,0,0,1-.72-4.26,6.88,6.88,0,0,1,1.8-3.92A4,4,0,0,1,281.09,785.35Zm-.44,11.5c2.1-.07,4-2.25,4.39-5.13.41-3.11-1.12-5.89-3.42-6.19a3.7,3.7,0,0,0-3.15,1.25,7.2,7.2,0,0,0-1.06,8,3.69,3.69,0,0,0,2.72,2h0A4.41,4.41,0,0,0,280.65,796.85Z" transform="translate(-37.16 -324.66)"/><ellipse class="cls-1" cx="292.48" cy="790.78" rx="4.28" ry="5.77" transform="translate(-142.15 -277.45) rotate(-7.83)"/><path class="cls-1" d="M292,785c2.26-.07,4.36,2.19,4.78,5.23.44,3.2-1.14,6.06-3.52,6.39h0c-2.38.33-4.67-2-5.11-5.2s1.14-6.06,3.52-6.39Zm1.24,11.47c2.3-.31,3.81-3.1,3.39-6.22s-2.65-5.38-4.94-5.07-3.82,3.11-3.39,6.22,2.65,5.39,4.94,5.07Z" transform="translate(-37.16 -324.66)"/><ellipse class="cls-1" cx="273.27" cy="781.47" rx="5.35" ry="4.28" transform="translate(-565.2 248.78) rotate(-56.17)"/><path class="cls-1" d="M274.08,776.36a3.7,3.7,0,0,1,2.21.61h0a3.94,3.94,0,0,1,1.67,3,6.4,6.4,0,0,1-4.26,6.36,3.77,3.77,0,0,1-5.12-3.43,6.41,6.41,0,0,1,4.26-6.36A4.63,4.63,0,0,1,274.08,776.36Zm-1.62,10.08a4.76,4.76,0,0,0,1.2-.22,6.25,6.25,0,0,0,4.15-6.2,3.8,3.8,0,0,0-1.61-2.93h0a3.8,3.8,0,0,0-3.31-.37,6.24,6.24,0,0,0-4.16,6.2,3.8,3.8,0,0,0,1.61,2.93A3.62,3.62,0,0,0,272.46,786.44Z" transform="translate(-37.16 -324.66)"/><ellipse class="cls-1" cx="471.29" cy="667.41" rx="4.28" ry="5.35" transform="translate(-264.15 766.95) rotate(-86.05)"/><path class="cls-1" d="M466.3,665.58a4.41,4.41,0,0,1,1.39-1.51,6.09,6.09,0,0,1,3.9-1c3,.2,5.28,2.32,5.11,4.71s-2.72,4.17-5.71,4a6.18,6.18,0,0,1-3.73-1.53,4,4,0,0,1-1.37-3.19h0A3.55,3.55,0,0,1,466.3,665.58Zm9.85,3.57a3.29,3.29,0,0,0,.4-1.38c.16-2.31-2.07-4.35-5-4.55a6,6,0,0,0-3.81,1A3.78,3.78,0,0,0,466,667h0a3.78,3.78,0,0,0,1.33,3.07A6,6,0,0,0,471,671.6,5.37,5.37,0,0,0,476.15,669.15Z" transform="translate(-37.16 -324.66)"/><path class="cls-1" d="M456.72,683.33c1.35.29,4.52,1.37,6.32,1a7.45,7.45,0,0,0,3.63-2,10.06,10.06,0,0,0,1.25-1.81,10.63,10.63,0,0,0,.8-2,7.46,7.46,0,0,0-.36-4.13c-.67-1.72-3.34-3.74-4.34-4.7,1-8.67-5.55-12.35-10.44-8.63-3.09,1.89-5.39,8.73-5.71,9.43s-4.31,5.45-4.14,9.07C443.37,685.62,450.09,689,456.72,683.33Z" transform="translate(-37.16 -324.66)"/><path class="cls-1" d="M445.11,674.53a32.83,32.83,0,0,1,2.36-3.68c.17-.23.29-.39.34-.48l.2-.5c.69-1.81,2.8-7.29,5.53-9a6.2,6.2,0,0,1,7-.68c2.75,1.57,4.08,5.07,3.58,9.36.22.2.5.45.83.73,1.25,1.1,3,2.61,3.5,4a7.52,7.52,0,0,1,.37,4.17,10.82,10.82,0,0,1-.81,2.07,10.31,10.31,0,0,1-1.26,1.82,7.48,7.48,0,0,1-3.67,2c-1.43.32-3.64-.26-5.25-.69-.42-.11-.78-.21-1.07-.27-3.28,2.81-6.93,3.65-9.76,2.25a6.2,6.2,0,0,1-3.33-6.18A10.32,10.32,0,0,1,445.11,674.53Zm2.83-4.09c-.06.1-.18.27-.34.5-1.08,1.48-3.94,5.43-3.8,8.54a6.06,6.06,0,0,0,3.24,6c2.79,1.38,6.39.54,9.63-2.25l0,0h0l1.11.28c1.51.4,3.78,1,5.17.7a7.32,7.32,0,0,0,3.59-2,9.54,9.54,0,0,0,1.24-1.79,9.71,9.71,0,0,0,.8-2,7.39,7.39,0,0,0-.36-4.08c-.52-1.33-2.29-2.88-3.46-3.9-.34-.3-.64-.56-.86-.77l0,0v0c.5-4.25-.8-7.71-3.5-9.25a6.05,6.05,0,0,0-6.82.68c-2.7,1.64-4.79,7.09-5.48,8.88C448.05,670.17,448,670.36,447.94,670.44Z" transform="translate(-37.16 -324.66)"/><ellipse class="cls-1" cx="471.23" cy="688.71" rx="4.28" ry="5.77" transform="translate(-399.17 318.29) rotate(-52.48)"/><path class="cls-1" d="M466.29,685.61a4.66,4.66,0,0,1,.3-.47c1.46-1.9,4.73-1.85,7.29.12s3.45,5.11,2,7a3.87,3.87,0,0,1-3.25,1.4,7,7,0,0,1-4-1.51,6.89,6.89,0,0,1-2.5-3.52A4,4,0,0,1,466.29,685.61Zm9.74,6.13c1-1.85.06-4.59-2.24-6.36-2.49-1.92-5.67-2-7.08-.14a3.73,3.73,0,0,0-.49,3.36,7.22,7.22,0,0,0,6.41,4.92,3.74,3.74,0,0,0,3.12-1.34h0A4.08,4.08,0,0,0,476,691.74Z" transform="translate(-37.16 -324.66)"/><ellipse class="cls-1" cx="476.69" cy="678.46" rx="4.28" ry="5.77" transform="matrix(0.38, -0.93, 0.93, 0.38, -368.63, 539.28)"/><path class="cls-1" d="M471.42,675.94c1.06-2,4.07-2.67,6.91-1.51,3,1.21,4.68,4,3.78,6.23h0c-.91,2.23-4.08,3-7.06,1.83s-4.68-4-3.78-6.24A3,3,0,0,1,471.42,675.94ZM482,680.61c.87-2.15-.78-4.86-3.69-6s-6-.41-6.87,1.74.79,4.85,3.69,6,6,.4,6.87-1.74Z" transform="translate(-37.16 -324.66)"/><ellipse class="cls-1" cx="459.03" cy="690.44" rx="4.28" ry="5.35" transform="translate(-294.81 -51.1) rotate(-26.2)"/><path class="cls-1" d="M455,687.18a3.7,3.7,0,0,1,1.63-1.6h0a3.93,3.93,0,0,1,3.47.07,6.39,6.39,0,0,1,3.38,6.86,3.77,3.77,0,0,1-5.53,2.72,6.39,6.39,0,0,1-3.38-6.86A4.94,4.94,0,0,1,455,687.18Zm7.92,6.45a4.61,4.61,0,0,0,.41-1.15,5.94,5.94,0,0,0-.53-3.89,6.07,6.07,0,0,0-2.76-2.81,3.81,3.81,0,0,0-3.34-.07h0a3.81,3.81,0,0,0-2,2.69,5.88,5.88,0,0,0,.54,3.89A6,6,0,0,0,458,695.1a3.81,3.81,0,0,0,3.34.07A3.59,3.59,0,0,0,462.92,693.63Z" transform="translate(-37.16 -324.66)"/><ellipse class="cls-1" cx="492.58" cy="564.44" rx="5.35" ry="4.28" transform="translate(-234.93 -51.16) rotate(-26.04)"/><path class="cls-1" d="M487.34,565.35a4.34,4.34,0,0,1,.45-2,6.11,6.11,0,0,1,2.88-2.82c2.68-1.31,5.72-.63,6.78,1.53s-.28,5-3,6.29a6.2,6.2,0,0,1-4,.54,3.94,3.94,0,0,1-2.78-2.07h0A3.55,3.55,0,0,1,487.34,565.35Zm10.32-1.83a3.49,3.49,0,0,0-.35-1.4c-1-2.08-4-2.73-6.58-1.46a6,6,0,0,0-2.81,2.75,3.81,3.81,0,0,0-.08,3.34h0a3.8,3.8,0,0,0,2.69,2,6,6,0,0,0,3.89-.53A5.34,5.34,0,0,0,497.66,563.52Z" transform="translate(-37.16 -324.66)"/><path class="cls-1" d="M487.92,585.51c1.31-.42,4.6-1.06,6-2.31a7.48,7.48,0,0,0,2.14-3.55,10.8,10.8,0,0,0,.18-2.19,10.49,10.49,0,0,0-.33-2.18,7.41,7.41,0,0,0-2.38-3.39c-1.44-1.16-4.76-1.57-6.1-1.91-3.45-8-11-7.92-13.37-2.25-1.73,3.18-.3,10.25-.22,11s-1,6.87.94,9.93C477.5,594.17,485,593.76,487.92,585.51Z" transform="translate(-37.16 -324.66)"/><path class="cls-1" d="M473.46,583.7a32.61,32.61,0,0,1,.21-4.37c0-.28.05-.48.05-.58s0-.28-.08-.54c-.3-1.91-1.22-7.71.32-10.52a6.18,6.18,0,0,1,5.7-4.08c3.16,0,6.07,2.34,7.78,6.31l1.08.23c1.64.32,3.87.77,5,1.68a7.46,7.46,0,0,1,2.4,3.43,10.23,10.23,0,0,1,.34,2.2,10.63,10.63,0,0,1-.19,2.2,7.4,7.4,0,0,1-2.16,3.59c-1.08,1-3.28,1.59-4.89,2-.42.12-.78.21-1.06.3-1.44,4.08-4.18,6.63-7.34,6.83a6.2,6.2,0,0,1-6-3.69A10.37,10.37,0,0,1,473.46,583.7Zm.41-5c0,.12,0,.32-.05.6-.19,1.83-.69,6.68,1,9.3a6,6,0,0,0,5.83,3.61c3.1-.2,5.79-2.73,7.21-6.76v0h0l1.11-.31c1.5-.41,3.77-1,4.83-2a7.32,7.32,0,0,0,2.11-3.5,10.58,10.58,0,0,0,.19-2.18,10.83,10.83,0,0,0-.33-2.16,7.31,7.31,0,0,0-2.36-3.35c-1.11-.89-3.42-1.35-4.95-1.65l-1.12-.24h0v0c-1.69-3.92-4.55-6.26-7.66-6.25a6.06,6.06,0,0,0-5.57,4c-1.51,2.78-.6,8.54-.3,10.44C473.83,578.45,473.86,578.65,473.87,578.74Z" transform="translate(-37.16 -324.66)"/><ellipse class="cls-1" cx="503.17" cy="582.92" rx="4.28" ry="5.77" transform="matrix(0.13, -0.99, 0.99, 0.13, -177.83, 680.68)"/><path class="cls-1" d="M497.35,582.7a2.54,2.54,0,0,1,0-.55c.31-2.38,3.17-4,6.36-3.55s5.55,2.71,5.23,5.08a3.86,3.86,0,0,1-2.11,2.84,7,7,0,0,1-4.26.71,6.88,6.88,0,0,1-3.92-1.8A4,4,0,0,1,497.35,582.7Zm11.5.45c-.07-2.1-2.25-4-5.13-4.4-3.11-.41-5.89,1.12-6.2,3.42a3.74,3.74,0,0,0,1.26,3.16,7.22,7.22,0,0,0,8,1,3.69,3.69,0,0,0,2-2.72h0A4.36,4.36,0,0,0,508.85,583.15Z" transform="translate(-37.16 -324.66)"/><ellipse class="cls-1" cx="502.78" cy="571.31" rx="5.77" ry="4.28" transform="translate(-110.25 -250.9) rotate(-7.82)"/><path class="cls-1" d="M497,571.77c-.07-2.25,2.19-4.35,5.23-4.77,3.2-.44,6.06,1.14,6.39,3.51h0c.33,2.38-2,4.67-5.2,5.11s-6.06-1.14-6.39-3.51Zm11.47-1.24c-.31-2.29-3.1-3.81-6.22-3.38s-5.38,2.64-5.07,4.94,3.11,3.81,6.22,3.38,5.39-2.64,5.07-4.94Z" transform="translate(-37.16 -324.66)"/><ellipse class="cls-1" cx="493.47" cy="590.52" rx="4.28" ry="5.35" transform="translate(-308.92 347.42) rotate(-56.2)"/><path class="cls-1" d="M488.36,589.71a3.65,3.65,0,0,1,.61-2.21h0a4,4,0,0,1,3-1.67,6.4,6.4,0,0,1,6.36,4.26,3.78,3.78,0,0,1-3.44,5.12,6.38,6.38,0,0,1-6.35-4.26A4.21,4.21,0,0,1,488.36,589.71Zm10.07,1.62a4.33,4.33,0,0,0-.21-1.2A6.25,6.25,0,0,0,492,586a3.8,3.8,0,0,0-2.93,1.61h0a3.82,3.82,0,0,0-.37,3.32,6.25,6.25,0,0,0,6.2,4.15,3.8,3.8,0,0,0,2.93-1.61A3.54,3.54,0,0,0,498.43,591.33Z" transform="translate(-37.16 -324.66)"/><ellipse class="cls-1" cx="461.33" cy="465.43" rx="5.35" ry="4.28" transform="translate(-219.6 263.34) rotate(-56.03)"/><path class="cls-1" d="M457.25,468.84a4.4,4.4,0,0,1-.62-1.95,6.11,6.11,0,0,1,1.09-3.89c1.67-2.47,4.64-3.4,6.63-2.06s2.26,4.45.59,6.93a6.16,6.16,0,0,1-3.19,2.46,4,4,0,0,1-3.45-.4h0A3.53,3.53,0,0,1,457.25,468.84Zm8-6.74a3.54,3.54,0,0,0-1-1c-1.92-1.29-4.81-.38-6.43,2a6,6,0,0,0-1.06,3.79,3.82,3.82,0,0,0,1.6,2.93h0a3.82,3.82,0,0,0,3.32.38,6,6,0,0,0,3.11-2.41A5.35,5.35,0,0,0,465.27,462.1Z" transform="translate(-37.16 -324.66)"/><path class="cls-1" d="M467.83,486c.93-1,3.45-3.23,4-5a7.32,7.32,0,0,0,.08-4.14,10.16,10.16,0,0,0-.94-2,9.76,9.76,0,0,0-1.37-1.72,7.41,7.41,0,0,0-3.76-1.75c-1.83-.28-4.91,1-6.24,1.4-7-5.23-13.48-1.37-12.7,4.73.09,3.62,4.87,9,5.32,9.66s2.57,6.45,5.78,8.13C463.13,498.72,469.45,494.6,467.83,486Z" transform="translate(-37.16 -324.66)"/><path class="cls-1" d="M454.4,491.67a31.15,31.15,0,0,1-2-3.89c-.12-.25-.2-.44-.25-.53l-.34-.42c-1.21-1.5-4.91-6.07-5-9.27a6.19,6.19,0,0,1,2.89-6.38c2.74-1.6,6.43-1,9.9,1.57.28-.08.64-.2,1.05-.34,1.58-.54,3.74-1.27,5.18-1.05a7.41,7.41,0,0,1,3.8,1.77,9.35,9.35,0,0,1,2.33,3.73,7.41,7.41,0,0,1-.08,4.19c-.44,1.4-2,3-3.22,4.2-.31.3-.57.57-.77.79.79,4.24-.3,7.82-2.93,9.58a6.2,6.2,0,0,1-7-.21A10.36,10.36,0,0,1,454.4,491.67Zm-2.12-4.5c.06.11.14.29.26.55.75,1.68,2.74,6.13,5.5,7.56a6.05,6.05,0,0,0,6.85.21c2.59-1.72,3.66-5.26,2.86-9.46v0l0,0c.21-.23.48-.51.8-.83,1.1-1.1,2.76-2.77,3.19-4.13a7.33,7.33,0,0,0,.08-4.09,9.89,9.89,0,0,0-.93-2,9.44,9.44,0,0,0-1.37-1.71,7.29,7.29,0,0,0-3.71-1.72c-1.41-.22-3.64.54-5.11,1l-1.1.36h0l0,0c-3.43-2.56-7.07-3.15-9.76-1.58a6,6,0,0,0-2.82,6.24c.07,3.16,3.74,7.69,4.95,9.18Z" transform="translate(-37.16 -324.66)"/><ellipse class="cls-1" cx="479.74" cy="476.14" rx="5.77" ry="4.28" transform="translate(-182.67 -105.29) rotate(-22.46)"/><path class="cls-1" d="M474.59,478.86a2.73,2.73,0,0,1-.25-.48c-.92-2.22.76-5,3.74-6.26s6.15-.43,7.07,1.79a3.87,3.87,0,0,1-.41,3.5,7.36,7.36,0,0,1-7.63,3.16A4,4,0,0,1,474.59,478.86Zm10.18-5.36c-1.11-1.78-3.95-2.35-6.63-1.24-2.91,1.2-4.55,3.92-3.66,6.06a3.69,3.69,0,0,0,2.66,2.1,7.23,7.23,0,0,0,7.47-3.08A3.74,3.74,0,0,0,485,474h0A4,4,0,0,0,484.77,473.5Z" transform="translate(-37.16 -324.66)"/><ellipse class="cls-1" cx="473.59" cy="466.29" rx="5.77" ry="4.28" transform="translate(-223.59 63.64) rotate(-37.82)"/><path class="cls-1" d="M468.78,469.6c-1.19-1.92-.28-4.87,2.15-6.75s5.81-2.05,7.28-.15h0c1.48,1.9.6,5.05-1.95,7s-5.81,2-7.29.15Zm9.31-6.81C476.67,461,473.5,461,471,463s-3.35,5-1.93,6.81,4.6,1.75,7.08-.18,3.35-5,1.92-6.81Z" transform="translate(-37.16 -324.66)"/><ellipse class="cls-1" cx="475.14" cy="487.58" rx="4.28" ry="5.35" transform="translate(-80.1 604.6) rotate(-86.19)"/><path class="cls-1" d="M470.31,489.43a3.68,3.68,0,0,1-.58-2.22h0a3.94,3.94,0,0,1,1.8-3,6.39,6.39,0,0,1,7.64.5,3.79,3.79,0,0,1-.41,6.16,6.25,6.25,0,0,1-3.91,1,6.15,6.15,0,0,1-3.73-1.52A4.31,4.31,0,0,1,470.31,489.43Zm9.54-3.63a4.29,4.29,0,0,0-.79-.93,6.23,6.23,0,0,0-7.45-.5,3.81,3.81,0,0,0-1.73,2.85h0a3.82,3.82,0,0,0,1.34,3.07,6.25,6.25,0,0,0,7.45.49,3.78,3.78,0,0,0,1.73-2.85A3.54,3.54,0,0,0,479.85,485.8Z" transform="translate(-37.16 -324.66)"/><ellipse class="cls-1" cx="384.82" cy="394.63" rx="5.35" ry="4.28" transform="matrix(0.07, -1, 1, 0.07, -72.58, 426.65)"/><path class="cls-1" d="M383,399.62a4.41,4.41,0,0,1-1.51-1.39,6.07,6.07,0,0,1-1-3.9c.2-3,2.32-5.27,4.71-5.11s4.17,2.73,4,5.71a6.1,6.1,0,0,1-1.53,3.73,3.94,3.94,0,0,1-3.19,1.38h0A3.73,3.73,0,0,1,383,399.62Zm3.57-9.85a3.61,3.61,0,0,0-1.38-.4c-2.31-.16-4.35,2.07-4.55,5a5.93,5.93,0,0,0,1,3.81,3.82,3.82,0,0,0,2.85,1.74h0a3.84,3.84,0,0,0,3.07-1.33,6,6,0,0,0,1.49-3.64A5.34,5.34,0,0,0,386.56,389.77Z" transform="translate(-37.16 -324.66)"/><path class="cls-1" d="M400.74,409.2c.29-1.35,1.37-4.51,1-6.32a7.34,7.34,0,0,0-2-3.62A10.68,10.68,0,0,0,397.9,398a10.31,10.31,0,0,0-2-.8,7.34,7.34,0,0,0-4.12.37c-1.73.67-3.75,3.33-4.71,4.33-8.68-1-12.35,5.55-8.63,10.44,1.88,3.09,8.73,5.39,9.43,5.71s5.45,4.31,9.08,4.15C403,422.56,406.44,415.83,400.74,409.2Z" transform="translate(-37.16 -324.66)"/><path class="cls-1" d="M391.94,420.81a32.83,32.83,0,0,1-3.68-2.36l-.48-.34-.5-.2c-1.81-.69-7.29-2.8-9-5.53a6.2,6.2,0,0,1-.68-7c1.57-2.74,5.07-4.08,9.36-3.58.2-.21.45-.5.73-.82,1.1-1.26,2.61-3,4-3.5a7.43,7.43,0,0,1,4.17-.37,9.38,9.38,0,0,1,2.07.81,9.64,9.64,0,0,1,1.82,1.26,7.53,7.53,0,0,1,2,3.67c.31,1.42-.27,3.63-.7,5.24-.11.42-.21.78-.27,1.07,2.81,3.28,3.65,6.93,2.25,9.76a6.2,6.2,0,0,1-6.18,3.33A10.32,10.32,0,0,1,391.94,420.81ZM387.85,418l.5.34c1.48,1.08,5.43,3.94,8.54,3.8a6,6,0,0,0,6-3.24c1.38-2.79.54-6.39-2.25-9.63l0,0v0c.06-.3.16-.68.28-1.12.4-1.5,1-3.78.69-5.17a7.39,7.39,0,0,0-2-3.59,10.48,10.48,0,0,0-1.8-1.24,9.71,9.71,0,0,0-2-.8,7.31,7.31,0,0,0-4.08.37c-1.33.52-2.88,2.28-3.9,3.46-.3.34-.56.63-.77.85l0,0h0c-4.25-.5-7.71.81-9.25,3.51a6,6,0,0,0,.68,6.81c1.64,2.7,7.09,4.79,8.88,5.48Z" transform="translate(-37.16 -324.66)"/><ellipse class="cls-1" cx="406.12" cy="394.69" rx="5.77" ry="4.28" transform="translate(-191.47 151.51) rotate(-52.45)"/><path class="cls-1" d="M403,399.63a3.64,3.64,0,0,1-.46-.3c-1.91-1.46-1.86-4.73.11-7.29s5.11-3.45,7-2a3.85,3.85,0,0,1,1.4,3.24,7.35,7.35,0,0,1-5,6.55A4,4,0,0,1,403,399.63Zm6.14-9.73c-1.86-1-4.6-.07-6.37,2.24-1.92,2.49-2,5.66-.14,7.07a3.71,3.71,0,0,0,3.36.49,7.22,7.22,0,0,0,4.92-6.4,3.71,3.71,0,0,0-1.34-3.12h0A2.87,2.87,0,0,0,409.16,389.9Z" transform="translate(-37.16 -324.66)"/><ellipse class="cls-1" cx="395.87" cy="389.23" rx="5.77" ry="4.28" transform="translate(-151.18 284.19) rotate(-67.82)"/><path class="cls-1" d="M393.36,394.51c-2-1.06-2.68-4.07-1.52-6.92s4-4.68,6.23-3.77h0c2.23.91,3,4.07,1.83,7.06s-4,4.68-6.24,3.77ZM398,384c-2.15-.88-4.86.78-6,3.69s-.41,6,1.74,6.86,4.85-.78,6-3.69.4-6-1.74-6.86Z" transform="translate(-37.16 -324.66)"/><ellipse class="cls-1" cx="407.85" cy="406.9" rx="5.35" ry="4.28" transform="translate(-174.83 -103.02) rotate(-26.18)"/><path class="cls-1" d="M404.6,410.92a3.63,3.63,0,0,1-1.61-1.63h0a3.93,3.93,0,0,1,.07-3.47,6.4,6.4,0,0,1,6.87-3.38,4,4,0,0,1,2.79,2.07,3.94,3.94,0,0,1-.07,3.46,6.41,6.41,0,0,1-6.87,3.38A4.35,4.35,0,0,1,404.6,410.92ZM411,403a4.26,4.26,0,0,0-1.15-.42,6.25,6.25,0,0,0-6.69,3.29,3.81,3.81,0,0,0-.08,3.34h0a3.78,3.78,0,0,0,2.69,2,6.22,6.22,0,0,0,6.7-3.29,3.78,3.78,0,0,0,.07-3.34A3.52,3.52,0,0,0,411,403Z" transform="translate(-37.16 -324.66)"/><ellipse class="cls-1" cx="401.37" cy="745.94" rx="4.28" ry="5.35" transform="translate(-478.74 337.81) rotate(-56.06)"/><path class="cls-1" d="M398,741.87a4.32,4.32,0,0,1,2-.62,6.07,6.07,0,0,1,3.88,1.08c2.48,1.67,3.41,4.65,2.07,6.64s-4.45,2.25-6.93.58a6.11,6.11,0,0,1-2.46-3.19,3.9,3.9,0,0,1,.4-3.45h0A3.57,3.57,0,0,1,398,741.87Zm6.75,8a3.39,3.39,0,0,0,1-1c1.3-1.92.39-4.8-2-6.42a5.94,5.94,0,0,0-3.79-1.06A3.79,3.79,0,0,0,397,743h0a3.79,3.79,0,0,0-.38,3.31,5.94,5.94,0,0,0,2.41,3.11A5.35,5.35,0,0,0,404.71,749.88Z" transform="translate(-37.16 -324.66)"/><path class="cls-1" d="M380.79,752.44c1,.93,3.22,3.45,5,4a7.42,7.42,0,0,0,4.14.09,10.87,10.87,0,0,0,2-.94,11.06,11.06,0,0,0,1.72-1.38,7.41,7.41,0,0,0,1.75-3.76c.27-1.82-1-4.9-1.41-6.23,5.24-7,1.37-13.48-4.72-12.7-3.63.08-9,4.86-9.66,5.31s-6.46,2.57-8.13,5.79C368.08,747.75,372.2,754.07,380.79,752.44Z" transform="translate(-37.16 -324.66)"/><path class="cls-1" d="M375.14,739a33,33,0,0,1,3.88-2l.53-.24.43-.34c1.5-1.22,6.06-4.91,9.27-5a6.2,6.2,0,0,1,6.38,2.9c1.59,2.73,1,6.43-1.57,9.89.08.29.2.64.34,1,.54,1.58,1.27,3.74,1.05,5.19a7.57,7.57,0,0,1-1.77,3.8A9.65,9.65,0,0,1,390,756.6a7.54,7.54,0,0,1-4.2-.09c-1.39-.43-3-2-4.19-3.22l-.79-.77c-4.25.8-7.83-.3-9.58-2.93a6.2,6.2,0,0,1,.2-7A10.31,10.31,0,0,1,375.14,739Zm4.49-2.12-.54.25c-1.68.75-6.13,2.74-7.57,5.5a6.07,6.07,0,0,0-.21,6.85c1.73,2.59,5.26,3.66,9.47,2.87h0l0,0c.23.2.5.48.83.8,1.1,1.09,2.77,2.75,4.13,3.18a7.43,7.43,0,0,0,4.09.09,9.46,9.46,0,0,0,3.69-2.31,7.34,7.34,0,0,0,1.72-3.71c.22-1.41-.54-3.63-1-5.11-.15-.43-.28-.8-.36-1.09v0l0,0c2.56-3.42,3.16-7.07,1.59-9.75a6.05,6.05,0,0,0-6.24-2.83c-3.16.08-7.7,3.75-9.19,5Z" transform="translate(-37.16 -324.66)"/><ellipse class="cls-1" cx="390.67" cy="764.35" rx="4.28" ry="5.77" transform="translate(-299.66 -117.3) rotate(-22.47)"/><path class="cls-1" d="M387.94,759.2a3.23,3.23,0,0,1,.49-.25c2.22-.92,5,.76,6.26,3.74s.43,6.15-1.79,7.07a3.89,3.89,0,0,1-3.51-.41,7.34,7.34,0,0,1-3.15-7.63A4,4,0,0,1,387.94,759.2Zm5.36,10.18c1.79-1.11,2.36-4,1.25-6.63-1.2-2.9-3.92-4.55-6.06-3.66a3.72,3.72,0,0,0-2.11,2.67,7.2,7.2,0,0,0,3.09,7.46,3.72,3.72,0,0,0,3.37.4h0A3.33,3.33,0,0,0,393.3,769.38Z" transform="translate(-37.16 -324.66)"/><ellipse class="cls-1" cx="400.52" cy="758.21" rx="4.28" ry="5.77" transform="translate(-418.05 80.43) rotate(-37.84)"/><path class="cls-1" d="M397.21,753.4c1.91-1.2,4.86-.29,6.75,2.14s2,5.81.15,7.29h0c-1.9,1.47-5.05.59-7-2s-2-5.81-.15-7.28A1.73,1.73,0,0,1,397.21,753.4Zm6.81,9.31c1.82-1.42,1.75-4.6-.18-7.08s-5-3.34-6.81-1.92-1.75,4.59.17,7.07,5,3.35,6.82,1.93Z" transform="translate(-37.16 -324.66)"/><ellipse class="cls-1" cx="379.23" cy="759.75" rx="5.35" ry="4.28" transform="translate(-441.24 762.91) rotate(-86.18)"/><path class="cls-1" d="M377.37,754.92a3.63,3.63,0,0,1,2.22-.57h0a3.92,3.92,0,0,1,3,1.79,6.42,6.42,0,0,1-.51,7.64,3.78,3.78,0,0,1-6.15-.41,6.41,6.41,0,0,1,.51-7.64A5.16,5.16,0,0,1,377.37,754.92Zm3.64,9.54a4.82,4.82,0,0,0,.93-.78,6,6,0,0,0,1.48-3.65,5.91,5.91,0,0,0-1-3.8,3.8,3.8,0,0,0-2.86-1.73h0a3.79,3.79,0,0,0-3.06,1.33,6.27,6.27,0,0,0-.5,7.45,3.8,3.8,0,0,0,2.86,1.73A3.55,3.55,0,0,0,381,764.46Z" transform="translate(-37.16 -324.66)"/><circle class="cls-2" cx="250.84" cy="250.34" r="171"/></g><g id="レイヤー_3" data-name="レイヤー 3"><ellipse class="cls-3" cx="250.84" cy="251.34" rx="239.5" ry="240"/></g><g id="レイヤー_5" data-name="レイヤー 5"><path class="cls-1" d="M360.8,484.24c1.71-5.87-32.42-23.66-39.83-25.27a.88.88,0,0,1-.32-.12C308,452,290,456.22,287.34,456.91a1.31,1.31,0,0,1-.68,0c-2.85-.77-23.33-5.87-36.61,1.59a.91.91,0,0,1-.31.12c-7.39,1.7-41.31,19.91-39.53,25.77a1.34,1.34,0,0,1-.66,1.56c-28.17,15.28-62.49,76.61-55.56,92.8,13.47,31.49,6.64,18.3,19.21,40.13A92.46,92.46,0,0,0,180,630c4.2,5.91,29.81-88.75,36.91-86.88s.1,38-.91,41.88a107.27,107.27,0,0,0-3,20c-.12,2.34-1.31,17.57-1,22,.46,6.51.89,16.85,1,17l3,8,7.13,11.1.06,0,11.88,10.93,10.12,9.13a1,1,0,0,0,.29.2l11.58,5.89a1.62,1.62,0,0,0,.28.11l12,3a1.47,1.47,0,0,0,.36,0L287,692l16.85,1a1.5,1.5,0,0,0,.42,0l11.88-3.12a1.08,1.08,0,0,0,.28-.11l11.51-6a1.37,1.37,0,0,0,.29-.2l10-9.26L350,663.16l.06-.06,8-12.1a23.59,23.59,0,0,0,3-8c0-1.41,2-9,2-13,.25-4.57-.9-12.73-1-14-.19-2.57-3-24-4-29-.78-3.91-3.07-46.66,1-46,6.66-4.3,32.15,79.48,33,82,5,12,6.57,5.73,10-4,8.33-23.78,3.07-9.44,16.16-41.1,6.73-16.26-28.33-77.17-56.68-92.1A1.35,1.35,0,0,1,360.8,484.24Z" transform="translate(-37.16 -324.66)"/><path class="cls-4" d="M284.71,621.9l-12.15-8.08A6.45,6.45,0,0,1,276.19,602l11.85.65h.83l11.61-.65a6.45,6.45,0,0,1,3.63,11.82L292,621.9A6.51,6.51,0,0,1,284.71,621.9Z" transform="translate(-37.16 -324.66)"/></g></svg>